<?xml version="1.0" encoding="UTF-8" standalone="no"?>
<svg
   version="1.0"
   width="64px"
   height="64px"
   viewBox="0 0 128 128"
   xml:space="preserve"
   id="svg15922"
   sodipodi:docname="preloader.svg"
   inkscape:version="1.2.2 (1:1.2.2+202212051552+b0a8486541)"
   xmlns:inkscape="http://www.inkscape.org/namespaces/inkscape"
   xmlns:sodipodi="http://sodipodi.sourceforge.net/DTD/sodipodi-0.dtd"
   xmlns="http://www.w3.org/2000/svg"
   xmlns:svg="http://www.w3.org/2000/svg"><defs
     id="defs15926" /><sodipodi:namedview
     id="namedview15924"
     pagecolor="#ffffff"
     bordercolor="#666666"
     borderopacity="1.0"
     inkscape:showpageshadow="2"
     inkscape:pageopacity="0.0"
     inkscape:pagecheckerboard="0"
     inkscape:deskcolor="#d1d1d1"
     showgrid="false"
     inkscape:zoom="6.75"
     inkscape:cx="1.2592593"
     inkscape:cy="38.518518"
     inkscape:window-width="1920"
     inkscape:window-height="1012"
     inkscape:window-x="0"
     inkscape:window-y="0"
     inkscape:window-maximized="1"
     inkscape:current-layer="g15920" /><g
     id="g15920"><path
       d="M40.73 13.1l-4.04-7A63.67 63.67 0 0 1 61.5.06v8a55.83 55.83 0 0 0-20.77 5.05z"
       fill="#e98135"
       id="path15896"
       style="fill:#e61e29;fill-opacity:1;opacity:0.05" /><path
       d="M40.73 13.1l-4.04-7A63.67 63.67 0 0 1 61.5.06v8a55.83 55.83 0 0 0-20.77 5.05z"
       fill="#fefcf9"
       transform="rotate(30 64 64)"
       id="path15898"
       style="fill:#e61e29;fill-opacity:1;opacity:0.1" /><path
       d="M40.73 13.1l-4.04-7A63.67 63.67 0 0 1 61.5.06v8a55.83 55.83 0 0 0-20.77 5.05z"
       fill="#fdf4ed"
       transform="rotate(60 64 64)"
       id="path15900"
       style="fill:#e61e29;fill-opacity:1;opacity:0.15" /><path
       d="M40.73 13.1l-4.04-7A63.67 63.67 0 0 1 61.5.06v8a55.83 55.83 0 0 0-20.77 5.05z"
       fill="#fbeadd"
       transform="rotate(90 64 64)"
       id="path15902"
       style="fill:#e61e29;fill-opacity:1;opacity:0.2" /><path
       d="M40.73 13.1l-4.04-7A63.67 63.67 0 0 1 61.5.06v8a55.83 55.83 0 0 0-20.77 5.05z"
       fill="#f9dfcc"
       transform="rotate(120 64 64)"
       id="path15904"
       style="fill:#e61e29;fill-opacity:1;opacity:0.25" /><path
       d="M40.73 13.1l-4.04-7A63.67 63.67 0 0 1 61.5.06v8a55.83 55.83 0 0 0-20.77 5.05z"
       fill="#f7d3b8"
       transform="rotate(150 64 64)"
       id="path15906"
       style="fill:#e61e29;fill-opacity:1;opacity:0.3" /><path
       d="M40.73 13.1l-4.04-7A63.67 63.67 0 0 1 61.5.06v8a55.83 55.83 0 0 0-20.77 5.05z"
       fill="#f5c7a5"
       transform="rotate(180 64 64)"
       id="path15908"
       style="fill:#e61e29;fill-opacity:1;opacity:0.4" /><path
       d="M40.73 13.1l-4.04-7A63.67 63.67 0 0 1 61.5.06v8a55.83 55.83 0 0 0-20.77 5.05z"
       fill="#f3ba90"
       transform="rotate(210 64 64)"
       id="path15910"
       style="fill:#e61e29;fill-opacity:1;opacity:0.5" /><path
       d="M40.73 13.1l-4.04-7A63.67 63.67 0 0 1 61.5.06v8a55.83 55.83 0 0 0-20.77 5.05z"
       fill="#f1ad7c"
       transform="rotate(240 64 64)"
       id="path15912"
       style="fill:#e61e29;fill-opacity:1;opacity:0.6" /><path
       d="M40.73 13.1l-4.04-7A63.67 63.67 0 0 1 61.5.06v8a55.83 55.83 0 0 0-20.77 5.05z"
       fill="#efa168"
       transform="rotate(270 64 64)"
       id="path15914"
       style="fill:#e61e29;fill-opacity:1;opacity:0.7" /><path
       d="M40.73 13.1l-4.04-7A63.67 63.67 0 0 1 61.5.06v8a55.83 55.83 0 0 0-20.77 5.05z"
       fill="#ed9656"
       transform="rotate(300 64 64)"
       id="path15916"
       style="fill:#e61e29;fill-opacity:1;opacity:0.8" /><path
       d="M40.73 13.1l-4.04-7A63.67 63.67 0 0 1 61.5.06v8a55.83 55.83 0 0 0-20.77 5.05z"
       fill="#eb8b46"
       transform="rotate(330 64 64)"
       id="path15918"
       style="fill:#e61e29;fill-opacity:1;opacity:0.9" /><animateTransform
       attributeName="transform"
       type="rotate"
       values="0 64 64;30 64 64;60 64 64;90 64 64;120 64 64;150 64 64;180 64 64;210 64 64;240 64 64;270 64 64;300 64 64;330 64 64"
       calcMode="discrete"
       dur="1080ms"
       repeatCount="indefinite" /></g></svg>
